<?xml version="1.0" standalone="no"?>
<!DOCTYPE svg PUBLIC "-//W3C//DTD SVG 20010904//EN"
 "http://www.w3.org/TR/2001/REC-SVG-20010904/DTD/svg10.dtd">
<svg version="1.0" xmlns="http://www.w3.org/2000/svg"
 width="799.000000pt" height="799.000000pt" viewBox="0 0 799.000000 799.000000"
 preserveAspectRatio="xMidYMid meet">
<metadata>
Created by potrace 1.14, written by Peter Selinger 2001-2017
</metadata>
<g transform="translate(0.000000,799.000000) scale(0.100000,-0.100000)"
fill="#000000" stroke="none">
<path d="M0 3995 l0 -3995 3995 0 3995 0 0 3995 0 3995 -3995 0 -3995 0 0
-3995z m4024 3292 c13 -10 35 -83 78 -258 32 -134 62 -259 65 -277 3 -18 9
-35 13 -37 4 -3 69 0 145 7 403 34 855 -88 1203 -323 57 -39 107 -69 111 -67
4 2 90 91 191 198 100 107 190 201 198 208 37 29 92 0 92 -49 0 -23 -37 -67
-195 -235 l-195 -206 88 -93 c372 -393 526 -906 411 -1372 -12 -48 -23 -90
-25 -92 -2 -2 -72 15 -156 37 -196 52 -1587 422 -2078 553 -960 254 -1082 287
-1087 293 -9 9 25 121 67 222 172 414 545 731 1020 864 47 13 86 25 88 25 1 1
-27 123 -63 271 -36 148 -65 278 -65 288 0 46 56 71 94 43z m-1626 -593 c61
-30 133 -106 208 -220 83 -126 130 -246 159 -407 14 -79 16 -131 12 -265 -7
-205 -28 -310 -75 -368 -39 -49 -60 -130 -45 -178 10 -31 1 -66 -89 -346 -54
-172 -97 -317 -96 -322 2 -4 44 33 95 84 l92 93 89 335 c49 184 93 334 98 333
13 -2 2054 -544 2914 -773 l405 -108 159 159 c112 112 174 167 210 184 147 71
307 49 424 -60 102 -94 146 -226 117 -350 -8 -36 -24 -84 -36 -107 -14 -27
-245 -269 -638 -666 -339 -343 -617 -627 -619 -632 -2 -5 16 -14 40 -20 77
-20 79 -21 74 -38 -3 -9 -26 -98 -52 -197 -26 -99 -49 -182 -50 -184 -2 -2
-29 3 -61 12 -31 9 -60 13 -64 9 -3 -4 -11 -27 -17 -52 -75 -297 -139 -524
-159 -563 -59 -118 -173 -194 -306 -204 -66 -5 -93 0 -311 57 l-238 63 -344
-350 c-189 -193 -365 -364 -391 -381 -99 -63 -212 -77 -324 -42 -84 26 -151
77 -199 150 -48 75 -64 140 -58 238 8 131 30 165 266 404 l204 207 -44 11
c-23 6 -83 22 -133 36 l-90 24 -420 -424 c-447 -450 -453 -455 -570 -477 -149
-27 -313 59 -382 200 -25 49 -28 67 -28 151 0 153 3 158 317 479 148 151 268
277 268 281 0 4 -64 24 -142 44 -165 43 -221 71 -284 138 -112 120 -126 237
-57 486 22 78 38 142 36 142 -2 0 -27 -15 -56 -34 -47 -32 -83 -45 -159 -61
-24 -5 -30 -14 -49 -75 -26 -87 -186 -335 -225 -350 -49 -19 -49 -19 -653 140
-195 52 -222 66 -240 124 -5 17 -13 96 -16 176 l-6 145 245 1105 c135 608 249
1110 253 1116 5 6 22 31 38 54 28 40 30 50 31 139 2 84 6 108 39 196 128 347
349 591 645 711 146 59 213 66 288 28z m-1063 -4053 c96 -43 135 -98 135 -190
0 -112 -77 -250 -214 -385 -87 -86 -143 -123 -170 -113 -22 9 -61 94 -87 193
-26 98 -36 259 -20 335 15 73 60 142 108 169 52 28 175 24 248 -9z"/>
<path d="M3910 6217 c-50 -26 -90 -90 -90 -141 0 -51 40 -118 85 -143 82 -46
181 -16 223 67 28 56 28 96 -1 150 -26 50 -90 90 -142 90 -18 0 -51 -10 -75
-23z"/>
<path d="M5485 5815 c-127 -45 -149 -214 -38 -290 103 -69 253 9 253 132 0 76
-51 142 -125 162 -48 13 -41 13 -90 -4z"/>
<path d="M1760 4961 c-43 -13 -84 -38 -111 -68 -56 -60 -45 -9 -214 -953 -42
-234 -92 -509 -111 -612 -19 -103 -34 -196 -34 -208 0 -54 57 -110 112 -110
55 0 107 56 122 131 2 13 26 83 52 154 46 124 48 135 49 240 2 142 23 201 105
288 l57 62 142 393 c154 429 161 462 122 547 -47 104 -184 168 -291 136z"/>
<path d="M2456 3471 l-39 -40 44 -11 c24 -6 74 -20 112 -30 l67 -19 25 37 c14
20 25 40 25 43 0 4 -37 17 -82 29 -46 12 -90 23 -98 26 -9 2 -32 -13 -54 -35z"/>
</g>
</svg>
